<?xml version="1.0" encoding="UTF-8" standalone="no"?>
<!DOCTYPE svg PUBLIC "-//W3C//DTD SVG 1.1//EN"
 "http://www.w3.org/Graphics/SVG/1.1/DTD/svg11.dtd">
<!-- Generated by graphviz version 12.1.2 (20240928.0832)
 -->
<!-- Title: go playground main db Pages: 1 -->
<svg width="550pt" height="376pt"
 viewBox="0.00 0.00 549.95 376.40" xmlns="http://www.w3.org/2000/svg" xmlns:xlink="http://www.w3.org/1999/xlink">
<g id="graph0" class="graph" transform="scale(1 1) rotate(0) translate(4 372.4)">
<title>go playground main db</title>
<polygon fill="white" stroke="none" points="-4,4 -4,-372.4 545.95,-372.4 545.95,4 -4,4"/>
<!-- tasks -->
<g id="node1" class="node">
<title>tasks</title>
<polygon fill="#efefef" stroke="none" points="43.2,-228 43.2,-263.6 217.69,-263.6 217.69,-228 43.2,-228"/>
<polygon fill="none" stroke="black" points="43.2,-228 43.2,-263.6 217.69,-263.6 217.69,-228 43.2,-228"/>
<text text-anchor="start" x="50.2" y="-241.4" font-family="Arial Bold" font-size="18.00">tasks</text>
<text text-anchor="start" x="86.2" y="-241.4" font-family="Arial" font-size="14.00">    </text>
<text text-anchor="start" x="117.32" y="-241.4" font-family="Arial" font-size="14.00" fill="#666666">[BASE TABLE]</text>
<polygon fill="none" stroke="black" points="43.2,-197.2 43.2,-228 217.69,-228 217.69,-197.2 43.2,-197.2"/>
<text text-anchor="start" x="50.2" y="-209.4" font-family="Arial" font-size="14.00">id </text>
<text text-anchor="start" x="64.99" y="-209.4" font-family="Arial" font-size="14.00" fill="#666666">[varchar(36)]</text>
<polygon fill="none" stroke="black" points="43.2,-166.4 43.2,-197.2 217.69,-197.2 217.69,-166.4 43.2,-166.4"/>
<text text-anchor="start" x="50.2" y="-178.6" font-family="Arial" font-size="14.00">content </text>
<text text-anchor="start" x="100.01" y="-178.6" font-family="Arial" font-size="14.00" fill="#666666">[text]</text>
<polygon fill="none" stroke="black" points="43.2,-135.6 43.2,-166.4 217.69,-166.4 217.69,-135.6 43.2,-135.6"/>
<text text-anchor="start" x="50.2" y="-147.8" font-family="Arial" font-size="14.00">created_at </text>
<text text-anchor="start" x="120.25" y="-147.8" font-family="Arial" font-size="14.00" fill="#666666">[datetime]</text>
<polygon fill="none" stroke="black" points="43.2,-104.8 43.2,-135.6 217.69,-135.6 217.69,-104.8 43.2,-104.8"/>
<text text-anchor="start" x="50.2" y="-117" font-family="Arial" font-size="14.00">updated_at </text>
<text text-anchor="start" x="124.16" y="-117" font-family="Arial" font-size="14.00" fill="#666666">[datetime]</text>
</g>
<!-- users -->
<g id="node2" class="node">
<title>users</title>
<polygon fill="#efefef" stroke="none" points="322.14,-289.6 322.14,-325.2 498.75,-325.2 498.75,-289.6 322.14,-289.6"/>
<polygon fill="none" stroke="black" points="322.14,-289.6 322.14,-325.2 498.75,-325.2 498.75,-289.6 322.14,-289.6"/>
<text text-anchor="start" x="329.7" y="-303" font-family="Arial Bold" font-size="18.00">users</text>
<text text-anchor="start" x="366.7" y="-303" font-family="Arial" font-size="14.00">    </text>
<text text-anchor="start" x="397.81" y="-303" font-family="Arial" font-size="14.00" fill="#666666">[BASE TABLE]</text>
<polygon fill="none" stroke="black" points="322.14,-258.8 322.14,-289.6 498.75,-289.6 498.75,-258.8 322.14,-258.8"/>
<text text-anchor="start" x="329.14" y="-271" font-family="Arial" font-size="14.00">id </text>
<text text-anchor="start" x="343.92" y="-271" font-family="Arial" font-size="14.00" fill="#666666">[binary(16)]</text>
<polygon fill="none" stroke="black" points="322.14,-228 322.14,-258.8 498.75,-258.8 498.75,-228 322.14,-228"/>
<text text-anchor="start" x="329.14" y="-240.2" font-family="Arial" font-size="14.00">sub </text>
<text text-anchor="start" x="355.6" y="-240.2" font-family="Arial" font-size="14.00" fill="#666666">[varchar(64)]</text>
<polygon fill="none" stroke="black" points="322.14,-197.2 322.14,-228 498.75,-228 498.75,-197.2 322.14,-197.2"/>
<text text-anchor="start" x="329.14" y="-209.4" font-family="Arial" font-size="14.00">given_name </text>
<text text-anchor="start" x="409.3" y="-209.4" font-family="Arial" font-size="14.00" fill="#666666">[varchar(64)]</text>
<polygon fill="none" stroke="black" points="322.14,-166.4 322.14,-197.2 498.75,-197.2 498.75,-166.4 322.14,-166.4"/>
<text text-anchor="start" x="329.14" y="-178.6" font-family="Arial" font-size="14.00">family_name </text>
<text text-anchor="start" x="412.39" y="-178.6" font-family="Arial" font-size="14.00" fill="#666666">[varchar(64)]</text>
<polygon fill="none" stroke="black" points="322.14,-135.6 322.14,-166.4 498.75,-166.4 498.75,-135.6 322.14,-135.6"/>
<text text-anchor="start" x="329.14" y="-147.8" font-family="Arial" font-size="14.00">email </text>
<text text-anchor="start" x="366.48" y="-147.8" font-family="Arial" font-size="14.00" fill="#666666">[varchar(255)]</text>
<polygon fill="none" stroke="black" points="322.14,-104.8 322.14,-135.6 498.75,-135.6 498.75,-104.8 322.14,-104.8"/>
<text text-anchor="start" x="329.14" y="-117" font-family="Arial" font-size="14.00">email_verified </text>
<text text-anchor="start" x="419.4" y="-117" font-family="Arial" font-size="14.00" fill="#666666">[tinyint(1)]</text>
<polygon fill="none" stroke="black" points="322.14,-74 322.14,-104.8 498.75,-104.8 498.75,-74 322.14,-74"/>
<text text-anchor="start" x="329.14" y="-86.2" font-family="Arial" font-size="14.00">created_at </text>
<text text-anchor="start" x="399.19" y="-86.2" font-family="Arial" font-size="14.00" fill="#666666">[datetime]</text>
<polygon fill="none" stroke="black" points="322.14,-43.2 322.14,-74 498.75,-74 498.75,-43.2 322.14,-43.2"/>
<text text-anchor="start" x="329.14" y="-55.4" font-family="Arial" font-size="14.00">updated_at </text>
<text text-anchor="start" x="403.1" y="-55.4" font-family="Arial" font-size="14.00" fill="#666666">[datetime]</text>
</g>
</g>
</svg>
